 <svg  version="1.0" xmlns="http://www.w3.org/2000/svg"  width="450.000000pt" height="450.000000pt" viewBox="0 0 450.000000 450.000000"  preserveAspectRatio="xMidYMid meet">  <g transform="translate(0.000000,450.000000) scale(0.050000,-0.050000)" fill="#ad31dd" stroke="none"> <path d="M2967 6592 c-151 -68 -255 -294 -457 -992 -376 -1299 -516 -1460 -1270 -1460 -298 0 -320 -8 -320 -112 0 -107 34 -118 348 -116 808 7 1097 303 1403 1434 157 585 336 1048 396 1028 109 -35 209 -363 722 -2364 381 -1484 493 -1750 739 -1750 269 0 369 233 682 1590 191 825 290 1150 350 1150 55 0 133 -232 282 -840 271 -1105 369 -1320 601 -1320 168 0 295 219 456 783 245 862 360 998 851 1014 238 8 290 28 290 116 0 247 -718 126 -977 -165 -142 -160 -201 -295 -363 -838 -134 -446 -212 -650 -258 -679 -56 -34 -158 271 -361 1079 -235 939 -308 1090 -530 1090 -219 0 -298 -200 -602 -1510 -200 -864 -283 -1124 -386 -1217 -114 -103 -298 476 -823 2587 -329 1325 -483 1622 -773 1492z"/> </g> </svg> 